<svg height="512pt" viewBox="0 -55 512 512" width="512pt" xmlns="http://www.w3.org/2000/svg"><path d="m70.285156 205.304688c-1.046875.296874-2.082031.609374-3.109375.941406-.234375.074218-.472656.148437-.707031.226562-1.085938.359375-2.164062.734375-3.234375 1.128906-.15625.058594-.316406.117188-.472656.175782-1.136719.425781-2.261719.871094-3.375 1.335937-.066407.027344-.128907.054688-.195313.082031-35.378906 14.921876-59.191406 49.996094-59.191406 89.089844v7.21875c0 53.285156 43.351562 96.636719 96.636719 96.636719h253.648437c44.785156 0 81.226563-36.441406 81.226563-81.226563 0-41.378906-30.976563-76.078124-72.046875-80.710937l-10.117188-1.144531-2.675781-9.820313c-9.082031-33.34375-36.839844-59.195312-70.714844-65.859375l-9.148437-1.796875-2.4375-9c-10.867188-40.101562-47.464844-68.113281-89.003906-68.113281h-1.539063c-50.835937 0-92.195313 41.359375-92.195313 92.195312v25.457032l-.058593.019531v.667969c-3.847657.605468-7.609375 1.453125-11.289063 2.496094zm0 0"/><path d="m512 236.523438c0-44.804688-36.449219-81.253907-81.253906-81.253907h-1.417969c-6.203125-41.46875-40.285156-73.949219-82.496094-77.691406-7.039062-43.914063-45.191406-77.578125-91.0625-77.578125h-1.539062c-37.429688 0-69.703125 22.421875-84.144531 54.53125 1.242187-.039062 2.488281-.066406 3.742187-.066406h1.539063c52 0 98.164062 33.117187 115.257812 81.578125 37.734375 10.480469 68.617188 39.082031 82.007812 75.886719 48.375 9.84375 84.519532 50.601562 88.503907 99.910156 29.785156-12.054688 50.863281-41.257813 50.863281-75.316406zm0 0"/></svg>