<svg height="490.66667pt" viewBox="0 0 490.66667 490.66667" width="490.66667pt" xmlns="http://www.w3.org/2000/svg"><path d="m490.667969 245.332031c0 135.496094-109.839844 245.335938-245.335938 245.335938-135.492187 0-245.332031-109.839844-245.332031-245.335938 0-135.492187 109.839844-245.332031 245.332031-245.332031 135.496094 0 245.335938 109.839844 245.335938 245.332031zm0 0" fill="#2196f3"/><path d="m245.332031 490.667969c-135.273437 0-245.332031-110.058594-245.332031-245.335938 0-135.273437 110.058594-245.332031 245.332031-245.332031 135.277344 0 245.335938 110.058594 245.335938 245.332031 0 135.277344-110.058594 245.335938-245.335938 245.335938zm0-469.335938c-123.519531 0-224 100.480469-224 224s100.480469 224 224 224 224-100.480469 224-224-100.480469-224-224-224zm0 0"/><path d="m352 213.332031c-17.644531 0-32-14.355469-32-32 0-17.640625 14.355469-32 32-32s32 14.359375 32 32c0 17.644531-14.355469 32-32 32zm0-42.664062c-5.886719 0-10.667969 4.796875-10.667969 10.664062 0 5.867188 4.78125 10.667969 10.667969 10.667969s10.667969-4.800781 10.667969-10.667969c0-5.867187-4.78125-10.664062-10.667969-10.664062zm0 0"/><path d="m181.332031 341.332031c-5.886719 0-10.664062-4.777343-10.664062-10.664062v-170.667969c0-5.886719 4.777343-10.667969 10.664062-10.667969h106.667969c5.886719 0 10.667969 4.78125 10.667969 10.667969s-4.78125 10.667969-10.667969 10.667969h-96v160c0 5.886719-4.777344 10.664062-10.667969 10.664062zm0 0"/><path d="m266.667969 256h-85.335938c-5.886719 0-10.664062-4.777344-10.664062-10.667969 0-5.886719 4.777343-10.664062 10.664062-10.664062h85.335938c5.886719 0 10.664062 4.777343 10.664062 10.664062 0 5.890625-4.777343 10.667969-10.664062 10.667969zm0 0"/></svg>