<svg height="490.66667pt" viewBox="0 0 490.66667 490.66667" width="490.66667pt" xmlns="http://www.w3.org/2000/svg"><path d="m490.667969 245.332031c0 135.496094-109.839844 245.335938-245.335938 245.335938-135.492187 0-245.332031-109.839844-245.332031-245.335938 0-135.492187 109.839844-245.332031 245.332031-245.332031 135.496094 0 245.335938 109.839844 245.335938 245.332031zm0 0" fill="#b0bec5"/><path d="m170.667969 266.667969c0 29.453125-23.878907 53.332031-53.335938 53.332031-29.453125 0-53.332031-23.878906-53.332031-53.332031 0-29.457031 23.878906-53.335938 53.332031-53.335938 29.457031 0 53.335938 23.878907 53.335938 53.335938zm0 0" fill="#90a4ae"/><path d="m213.332031 394.667969c0 17.671875-14.324219 32-32 32-17.671875 0-32-14.328125-32-32 0-17.675781 14.328125-32 32-32 17.675781 0 32 14.324219 32 32zm0 0" fill="#90a4ae"/><path d="m245.332031 490.667969c-135.273437 0-245.332031-110.058594-245.332031-245.335938 0-135.273437 110.058594-245.332031 245.332031-245.332031 135.277344 0 245.335938 110.058594 245.335938 245.332031 0 135.277344-110.058594 245.335938-245.335938 245.335938zm0-469.335938c-123.519531 0-224 100.480469-224 224s100.480469 224 224 224 224-100.480469 224-224-100.480469-224-224-224zm0 0"/><path d="m117.332031 320c-29.394531 0-53.332031-23.9375-53.332031-53.332031 0-29.398438 23.9375-53.335938 53.332031-53.335938 29.398438 0 53.335938 23.9375 53.335938 53.335938 0 29.394531-23.9375 53.332031-53.335938 53.332031zm0-85.332031c-17.640625 0-32 14.355469-32 32 0 17.640625 14.359375 32 32 32 17.644531 0 32-14.359375 32-32 0-17.644531-14.355469-32-32-32zm0 0"/><path d="m181.332031 426.667969c-17.640625 0-32-14.359375-32-32 0-17.644531 14.359375-32 32-32 17.644531 0 32 14.355469 32 32 0 17.640625-14.355469 32-32 32zm0-42.667969c-5.886719 0-10.664062 4.777344-10.664062 10.667969 0 5.886719 4.777343 10.664062 10.664062 10.664062 5.890625 0 10.667969-4.777343 10.667969-10.664062 0-5.890625-4.777344-10.667969-10.667969-10.667969zm0 0"/></svg>