<svg height="512pt" viewBox="0 -53 512 511" width="512pt" xmlns="http://www.w3.org/2000/svg"><path d="m394.667969 85.832031c-8.832031 0-17.816407 1.195313-27.265625 3.605469-26.921875-54.335938-82.195313-88.9375-143.402344-88.9375-78.039062 0-144.554688 56.640625-157.589844 132.886719-39.445312 12.734375-66.410156 49.214843-66.410156 91.113281 0 52.929688 43.070312 96 96 96h298.667969c64.703125 0 117.332031-52.652344 117.332031-117.332031 0-64.707031-52.628906-117.335938-117.332031-117.335938zm0 0" fill="#bbdefb"/><path d="m117.332031 405.832031c-5.886719 0-10.664062-4.777343-10.664062-10.664062v-42.667969c0-5.886719 4.777343-10.667969 10.664062-10.667969 5.890625 0 10.667969 4.78125 10.667969 10.667969v42.667969c0 5.886719-4.777344 10.664062-10.667969 10.664062zm0 0"/><path d="m135.808594 395.167969c-1.8125 0-3.648438-.449219-5.332032-1.429688l-36.953124-21.335937c-5.097657-2.941406-6.847657-9.449219-3.902344-14.570313 2.945312-5.097656 9.472656-6.867187 14.570312-3.902343l36.949219 21.332031c5.097656 2.945312 6.847656 9.453125 3.90625 14.570312-1.964844 3.414063-5.546875 5.335938-9.238281 5.335938zm0 0"/><path d="m98.859375 395.167969c-3.691406 0-7.273437-1.921875-9.257813-5.335938-2.945312-5.097656-1.195312-11.625 3.902344-14.570312l36.949219-21.332031c5.054687-2.988282 11.605469-1.214844 14.570313 3.902343 2.945312 5.101563 1.195312 11.628907-3.902344 14.570313l-36.949219 21.335937c-1.664063.980469-3.5 1.429688-5.3125 1.429688zm0 0"/><path d="m202.667969 405.832031c-5.890625 0-10.667969-4.777343-10.667969-10.664062v-42.667969c0-5.886719 4.777344-10.667969 10.667969-10.667969 5.886719 0 10.664062 4.78125 10.664062 10.667969v42.667969c0 5.886719-4.777343 10.664062-10.664062 10.664062zm0 0"/><path d="m221.140625 395.167969c-1.8125 0-3.648437-.449219-5.332031-1.429688l-36.949219-21.335937c-5.097656-2.941406-6.847656-9.449219-3.90625-14.570313 2.945313-5.097656 9.453125-6.867187 14.570313-3.902343l36.953124 21.332031c5.097657 2.945312 6.847657 9.453125 3.902344 14.570312-1.964844 3.414063-5.546875 5.335938-9.238281 5.335938zm0 0"/><path d="m184.191406 395.167969c-3.691406 0-7.273437-1.921875-9.257812-5.335938-2.945313-5.097656-1.195313-11.625 3.902344-14.570312l36.949218-21.332031c5.078125-2.988282 11.605469-1.214844 14.570313 3.902343 2.945312 5.101563 1.195312 11.628907-3.902344 14.570313l-36.949219 21.335937c-1.664062.980469-3.5 1.429688-5.3125 1.429688zm0 0"/><path d="m288 405.832031c-5.886719 0-10.667969-4.777343-10.667969-10.664062v-42.667969c0-5.886719 4.78125-10.667969 10.667969-10.667969s10.667969 4.78125 10.667969 10.667969v42.667969c0 5.886719-4.78125 10.664062-10.667969 10.664062zm0 0"/><path d="m306.476562 395.167969c-1.816406 0-3.648437-.449219-5.335937-1.429688l-36.949219-21.335937c-5.097656-2.941406-6.847656-9.449219-3.902344-14.570313 2.941407-5.097656 9.472657-6.867187 14.570313-3.902343l36.949219 21.332031c5.097656 2.945312 6.847656 9.453125 3.902344 14.570312-1.960938 3.414063-5.546876 5.335938-9.234376 5.335938zm0 0"/><path d="m269.523438 395.167969c-3.6875 0-7.273438-1.921875-9.257813-5.335938-2.941406-5.097656-1.195313-11.625 3.90625-14.570312l36.949219-21.332031c5.078125-2.988282 11.605468-1.214844 14.570312 3.902343 2.941406 5.101563 1.195313 11.628907-3.90625 14.570313l-36.949218 21.335937c-1.664063.980469-3.496094 1.429688-5.3125 1.429688zm0 0"/><path d="m160 341.832031c-5.886719 0-10.667969-4.777343-10.667969-10.664062v-42.667969c0-5.886719 4.78125-10.667969 10.667969-10.667969s10.667969 4.78125 10.667969 10.667969v42.667969c0 5.886719-4.78125 10.664062-10.667969 10.664062zm0 0"/><path d="m178.476562 331.167969c-1.816406 0-3.648437-.449219-5.335937-1.429688l-36.949219-21.335937c-5.097656-2.941406-6.847656-9.449219-3.902344-14.570313 2.941407-5.097656 9.449219-6.890625 14.570313-3.902343l36.949219 21.332031c5.097656 2.945312 6.847656 9.453125 3.902344 14.570312-1.960938 3.414063-5.546876 5.335938-9.234376 5.335938zm0 0"/><path d="m141.523438 331.167969c-3.6875 0-7.273438-1.921875-9.257813-5.335938-2.941406-5.097656-1.195313-11.625 3.90625-14.570312l36.949219-21.332031c5.054687-3.007813 11.605468-1.214844 14.570312 3.902343 2.941406 5.101563 1.195313 11.628907-3.90625 14.570313l-36.949218 21.335937c-1.664063.980469-3.496094 1.429688-5.3125 1.429688zm0 0"/><path d="m245.332031 341.832031c-5.886719 0-10.664062-4.777343-10.664062-10.664062v-42.667969c0-5.886719 4.777343-10.667969 10.664062-10.667969 5.890625 0 10.667969 4.78125 10.667969 10.667969v42.667969c0 5.886719-4.777344 10.664062-10.667969 10.664062zm0 0"/><path d="m263.808594 331.167969c-1.8125 0-3.648438-.449219-5.332032-1.429688l-36.953124-21.335937c-5.097657-2.941406-6.847657-9.449219-3.902344-14.570313 2.945312-5.097656 9.472656-6.890625 14.570312-3.902343l36.949219 21.332031c5.097656 2.945312 6.847656 9.453125 3.90625 14.570312-1.964844 3.414063-5.546875 5.335938-9.238281 5.335938zm0 0"/><path d="m226.859375 331.167969c-3.691406 0-7.273437-1.921875-9.257813-5.335938-2.945312-5.097656-1.195312-11.625 3.902344-14.570312l36.949219-21.332031c5.078125-3.007813 11.605469-1.214844 14.570313 3.902343 2.945312 5.101563 1.195312 11.628907-3.902344 14.570313l-36.949219 21.335937c-1.664063.980469-3.5 1.429688-5.3125 1.429688zm0 0"/><path d="m330.667969 341.832031c-5.890625 0-10.667969-4.777343-10.667969-10.664062v-42.667969c0-5.886719 4.777344-10.667969 10.667969-10.667969 5.886719 0 10.664062 4.78125 10.664062 10.667969v42.667969c0 5.886719-4.777343 10.664062-10.664062 10.664062zm0 0"/><path d="m349.140625 331.167969c-1.8125 0-3.648437-.449219-5.332031-1.429688l-36.949219-21.335937c-5.097656-2.941406-6.847656-9.449219-3.90625-14.570313 2.945313-5.097656 9.472656-6.890625 14.570313-3.902343l36.953124 21.332031c5.097657 2.945312 6.847657 9.453125 3.902344 14.570312-1.964844 3.414063-5.546875 5.335938-9.238281 5.335938zm0 0"/><path d="m312.191406 331.167969c-3.691406 0-7.273437-1.921875-9.257812-5.335938-2.945313-5.097656-1.195313-11.625 3.902344-14.570312l36.949218-21.332031c5.078125-3.007813 11.605469-1.214844 14.570313 3.902343 2.945312 5.101563 1.195312 11.628907-3.902344 14.570313l-36.949219 21.335937c-1.664062.980469-3.5 1.429688-5.3125 1.429688zm0 0"/><path d="m394.667969 320.5c-5.890625 0-10.667969-4.777344-10.667969-10.667969 0-5.886719 4.777344-10.664062 10.667969-10.664062 52.925781 0 96-43.074219 96-96 0-52.929688-43.074219-96-96-96-9.34375 0-19.074219 1.707031-29.78125 5.246093-5.292969 1.707032-10.988281-.894531-13.164063-5.972656-21.78125-51.390625-71.914062-84.609375-127.722656-84.609375-69.695312 0-128.789062 52.140625-137.449219 121.28125-.554687 4.394531-3.777343 8-8.085937 9.023438-33.644532 8.148437-57.132813 37.910156-57.132813 72.363281 0 41.171875 33.496094 74.667969 74.667969 74.667969 5.886719 0 10.667969 4.777343 10.667969 10.664062 0 5.890625-4.78125 10.667969-10.667969 10.667969-52.929688 0-96-43.070312-96-96 0-41.898438 26.964844-78.378906 66.410156-91.113281 13.035156-76.246094 79.550782-132.886719 157.589844-132.886719 61.207031 0 116.480469 34.601562 143.402344 88.9375 9.449218-2.410156 18.433594-3.605469 27.265625-3.605469 64.703125 0 117.332031 52.628907 117.332031 117.335938 0 64.679687-52.628906 117.332031-117.332031 117.332031zm0 0"/></svg>