<svg height="512pt" viewBox="0 -53 512 511" width="512pt" xmlns="http://www.w3.org/2000/svg"><path d="m394.667969 85.832031c-8.8125 0-17.792969 1.195313-27.265625 3.628907-26.921875-54.359376-82.195313-88.960938-143.402344-88.960938-78.039062 0-144.554688 56.640625-157.589844 132.886719-39.445312 12.734375-66.410156 49.214843-66.410156 91.113281 0 52.929688 43.070312 96 96 96h298.667969c64.703125 0 117.332031-52.652344 117.332031-117.332031 0-64.683594-52.628906-117.335938-117.332031-117.335938zm0 0" fill="#bbdefb"/><path d="m334.039062 171.699219-64-21.332031c-3.050781-.980469-6.402343-.621094-9.132812 1.152343-2.707031 1.726563-4.5 4.605469-4.863281 7.785157l-8.980469 80.8125-28.972656-14.507813c-2.984375-1.472656-6.464844-1.515625-9.449219-.042969-2.988281 1.449219-5.121094 4.222656-5.78125 7.507813l-32 160c-1.003906 4.972656 1.664063 9.984375 6.378906 11.949219 1.34375.53125 2.730469.808593 4.09375.808593 3.480469 0 6.847657-1.707031 8.875-4.757812l58.773438-88.167969 34.242187 17.128906c2.816406 1.386719 6.101563 1.472656 8.957032.277344 2.882812-1.238281 5.078124-3.691406 5.996093-6.65625l42.667969-138.664062c1.726562-5.546876-1.300781-11.457032-6.804688-13.292969zm0 0" fill="#ffc107"/><path d="m181.332031 405.832031c-1.363281 0-2.75-.277343-4.074219-.808593-4.714843-1.964844-7.378906-6.957032-6.378906-11.949219l32-160c.640625-3.261719 2.773438-6.035157 5.78125-7.507813 2.988282-1.472656 6.488282-1.429687 9.453125.042969l28.96875 14.507813 8.980469-80.8125c.363281-3.179688 2.15625-6.058594 4.867188-7.785157 2.730468-1.773437 6.078124-2.132812 9.128906-1.152343l64 21.332031c5.503906 1.835937 8.511718 7.722656 6.828125 13.269531l-42.667969 138.667969c-.917969 2.984375-3.113281 5.4375-5.996094 6.65625-2.878906 1.214843-6.164062 1.128906-8.957031-.277344l-34.242187-17.132813-58.773438 88.171876c-2.070312 3.070312-5.4375 4.777343-8.917969 4.777343zm39.722657-154.878906-18.6875 93.441406 34.089843-51.136719c2.988281-4.480468 8.855469-6.082031 13.65625-3.628906l31.402344 15.703125 35.902344-116.671875-41.597657-13.867187-9.21875 82.902343c-.382812 3.457032-2.453124 6.527344-5.503906 8.191407-3.050781 1.664062-6.742187 1.726562-9.855468.171875zm0 0"/><path d="m394.667969 320.5h-42.667969c-5.886719 0-10.667969-4.777344-10.667969-10.667969 0-5.886719 4.78125-10.664062 10.667969-10.664062h42.667969c52.925781 0 96-43.074219 96-96 0-52.929688-43.074219-96-96-96-9.300781 0-19.050781 1.707031-29.78125 5.226562-5.292969 1.769531-10.988281-.855469-13.144531-5.953125-21.800782-51.390625-71.933594-84.609375-127.742188-84.609375-69.695312 0-128.789062 52.140625-137.449219 121.300781-.554687 4.398438-3.777343 8-8.085937 9.027344-33.644532 8.125-57.132813 37.886719-57.132813 72.339844 0 41.171875 33.496094 74.667969 74.667969 74.667969h42.667969c5.886719 0 10.664062 4.777343 10.664062 10.664062 0 5.890625-4.777343 10.667969-10.664062 10.667969h-42.667969c-52.929688 0-96-43.070312-96-96 0-41.898438 26.964844-78.378906 66.410156-91.113281 13.035156-76.246094 79.550782-132.886719 157.589844-132.886719 61.207031 0 116.480469 34.601562 143.402344 88.960938 9.472656-2.433594 18.453125-3.628907 27.265625-3.628907 64.703125 0 117.332031 52.652344 117.332031 117.335938 0 64.679687-52.628906 117.332031-117.332031 117.332031zm0 0"/></svg>